<?xml version="1.0" encoding="UTF-8"?>
<svg version="1.1" xmlns="http://www.w3.org/2000/svg" width="951" height="803">
<path d="M0 0 C8.41799163 6.4516516 14.83394989 13.84412404 19.95703125 23.1171875 C21.03487923 25.22935858 21.03487923 25.22935858 23.18359375 26.0859375 C23.43238281 25.37953125 23.68117188 24.673125 23.9375 23.9453125 C25.33429074 20.74013751 27.06872216 18.16415906 29.12109375 15.3359375 C29.81074219 14.37171875 30.50039063 13.4075 31.2109375 12.4140625 C33.18359375 10.0859375 33.18359375 10.0859375 36.18359375 9.0859375 C36.18359375 8.4259375 36.18359375 7.7659375 36.18359375 7.0859375 C54.37292281 -8.52791134 77.90347933 -13.11464408 101.18359375 -11.9140625 C121.13436791 -10.38929935 139.14978873 -3.23583279 154.18359375 10.0859375 C155.08464844 10.86324219 155.08464844 10.86324219 156.00390625 11.65625 C168.44887465 23.17508122 176.15702087 38.70337869 180.99609375 54.7109375 C181.19114502 55.35458252 181.38619629 55.99822754 181.5871582 56.66137695 C184.74363999 67.86013436 185.54847698 79.1215229 185.49609375 90.7109375 C185.4904541 92.02763428 185.48481445 93.34433105 185.47900391 94.70092773 C184.87853761 143.19304038 160.89117904 187.00552143 128.25585938 221.67285156 C126.1942532 223.86724379 124.22729015 226.02573138 122.45703125 228.46484375 C122.03679687 228.99980469 121.6165625 229.53476562 121.18359375 230.0859375 C120.52359375 230.0859375 119.86359375 230.0859375 119.18359375 230.0859375 C118.95671875 230.6634375 118.72984375 231.2409375 118.49609375 231.8359375 C116.83597736 234.68185131 114.79171418 236.08435671 112.18359375 238.0859375 C109.90286565 240.3050243 107.67823106 242.56979422 105.4765625 244.8671875 C100.90711637 249.55761692 96.07099848 253.7085414 90.96484375 257.8046875 C88.3283937 259.96716901 85.81490669 262.21242167 83.30859375 264.5234375 C79.15674211 268.30260325 74.81666296 271.76204718 70.34545898 275.14868164 C66.12586438 278.34623334 61.98927456 281.63407227 57.87109375 284.9609375 C51.934642 289.7440877 45.89950459 294.37697549 39.76708984 298.90625 C35.37682974 302.15297519 31.15560918 305.53452658 27.078125 309.171875 C25.18359375 310.0859375 25.18359375 310.0859375 22.97265625 309.625 C18.98880027 307.42662569 15.39901868 304.79116418 11.74609375 302.0859375 C10.1292018 300.90194003 8.51201118 299.71835034 6.89453125 298.53515625 C6.0962793 297.94911621 5.29802734 297.36307617 4.47558594 296.75927734 C1.86104477 294.85045063 -0.77551512 292.97507655 -3.41918945 291.10693359 C-10.70375978 285.95790845 -17.79550005 280.58807254 -24.81640625 275.0859375 C-26.09257813 274.08626953 -26.09257813 274.08626953 -27.39453125 273.06640625 C-37.60318893 264.98180799 -47.46180331 256.53079544 -57.00390625 247.671875 C-60.36065413 244.58553181 -63.80018293 241.60331945 -67.26953125 238.64453125 C-68.81640625 237.0859375 -68.81640625 237.0859375 -68.81640625 235.0859375 C-69.41324219 234.82554687 -70.01007813 234.56515625 -70.625 234.296875 C-72.97747408 232.99693389 -74.1769141 231.7742221 -75.87890625 229.7109375 C-78.8156839 226.2242951 -81.8719182 222.89844359 -85.00390625 219.5859375 C-106.29763127 196.60638256 -123.3550786 167.91808285 -132.81640625 138.0859375 C-133.2134375 136.84070313 -133.61046875 135.59546875 -134.01953125 134.3125 C-143.15413369 102.88674084 -143.06485794 66.6171056 -127.81640625 37.0859375 C-127.5121875 36.40917969 -127.20796875 35.73242188 -126.89453125 35.03515625 C-118.09870336 15.7846382 -100.36059438 1.46811726 -80.81640625 -5.9140625 C-53.475391 -15.99016941 -24.94066536 -16.94996675 0 0 Z M-103.81640625 18.0859375 C-103.81640625 18.7459375 -103.81640625 19.4059375 -103.81640625 20.0859375 C-104.41582031 20.34117187 -105.01523437 20.59640625 -105.6328125 20.859375 C-109.41435572 22.98353345 -111.39593532 26.57153945 -113.81640625 30.0859375 C-114.24050781 30.67246094 -114.66460937 31.25898438 -115.1015625 31.86328125 C-119.52307908 38.36049372 -122.06921114 45.77600964 -124.81640625 53.0859375 C-125.12707031 53.85679687 -125.43773437 54.62765625 -125.7578125 55.421875 C-138.42536538 88.9809418 -129.307861 127.70641914 -115.1640625 159.11328125 C-107.26830577 176.10724384 -96.85047746 191.74365524 -84.81640625 206.0859375 C-84.05199219 207.0346875 -83.28757812 207.9834375 -82.5 208.9609375 C-75.68110022 217.29029616 -68.17139785 224.91931036 -60.56640625 232.5234375 C-60.0470752 233.04367493 -59.52774414 233.56391235 -58.99267578 234.09991455 C-53.11388006 239.97755084 -47.16212626 245.70846533 -40.81640625 251.0859375 C-39.79496068 251.97455715 -38.77409144 252.86383989 -37.75390625 253.75390625 C-30.07899164 260.33677849 -22.14797417 266.4767196 -14.00683594 272.47070312 C-11.71138198 274.16338295 -9.42366824 275.86616323 -7.13671875 277.5703125 C2.81966001 284.97112973 12.90532894 292.13924818 23.18359375 299.0859375 C26.9002158 297.44598916 29.94936299 295.07927162 33.12109375 292.5859375 C34.28245207 291.68216313 35.44391336 290.77852107 36.60546875 289.875 C37.19779297 289.41254883 37.79011719 288.95009766 38.40039062 288.47363281 C40.6675779 286.70929923 42.948407 284.96319204 45.22998047 283.2175293 C55.4007267 275.42984247 65.33927559 267.35993513 75.26953125 259.26953125 C77.64283144 257.33626369 80.0214212 255.41025067 82.41015625 253.49609375 C86.98212168 249.81207202 91.33589902 246.10028514 95.40429688 241.86474609 C97.16871581 240.10081135 98.99841732 238.48012971 100.89453125 236.859375 C105.13263639 233.17393938 109.15293421 229.30893567 113.12109375 225.3359375 C113.81984619 224.63637939 114.51859863 223.93682129 115.23852539 223.21606445 C120.62043878 217.77037098 125.46551027 212.11768344 130.18359375 206.0859375 C130.88226562 205.26609375 131.5809375 204.44625 132.30078125 203.6015625 C139.37819847 195.29000491 145.35458655 186.30212486 151.18359375 177.0859375 C151.59641602 176.4352832 152.00923828 175.78462891 152.43457031 175.11425781 C171.77716158 144.11089364 182.02345876 103.63584954 175.05639648 67.22460938 C174.25632371 63.78731782 173.28547536 60.4377037 172.18359375 57.0859375 C171.86213379 56.05992432 171.86213379 56.05992432 171.53417969 55.01318359 C168.38725215 45.14868804 164.10318807 36.61645555 158.18359375 28.0859375 C157.56742188 27.19132812 156.95125 26.29671875 156.31640625 25.375 C144.62498221 9.6085568 125.47017263 0.43290457 106.3671875 -2.5 C82.72544359 -5.17524997 61.02982887 -0.92674586 42.18359375 14.0859375 C32.59536197 22.60704049 27.16216103 34.77452609 24.18359375 47.0859375 C21.98960911 44.27570129 20.1668746 41.41826363 18.43359375 38.3046875 C8.03967214 19.94552618 -2.63109991 4.60211773 -23.81640625 -1.9140625 C-30.23007727 -3.67994815 -36.30088972 -4.26972277 -42.94140625 -4.2265625 C-44.3183667 -4.21810303 -44.3183667 -4.21810303 -45.72314453 -4.20947266 C-66.15495115 -3.84914221 -88.73739245 3.76087439 -103.81640625 18.0859375 Z " fill="#000000" transform="translate(596.81640625,140.9140625)"/>
<path d="M0 0 C8.56069341 0.84855909 17.10645359 1.64324755 25.70275879 2.04074097 C26.45460449 2.07675415 27.2064502 2.11276733 27.9810791 2.14987183 C40.77704347 2.66783045 53.4938252 2.29866609 66.26525879 1.47824097 C67.71960206 1.38852053 69.17394779 1.29884004 70.6282959 1.209198 C78.67012415 0.70278776 86.68776096 0.06312073 94.70275879 -0.77175903 C123.80900087 -3.76417597 123.80900087 -3.76417597 134.14025879 4.35324097 C136.62121216 8.07467103 136.66421865 11.04324856 136.14025879 15.35324097 C134.5266497 19.52964097 132.10327248 21.37062047 128.22009277 23.51974487 C124.44523506 25.03252387 120.71184429 24.80903632 116.70275879 24.66574097 C115.89516113 24.656073 115.08756348 24.64640503 114.25549316 24.63644409 C109.14999702 24.54182168 104.19777742 24.03727171 99.14025879 23.35324097 C90.67525441 22.61468354 81.03381359 23.65274799 74.14025879 28.97824097 C66.05145875 37.4428845 66.56464315 47.46923725 66.62268066 58.46432495 C66.61725377 60.19325346 66.61012794 61.92217733 66.60144043 63.65109253 C66.58327015 68.326818 66.59024886 73.00218876 66.60295677 77.6779201 C66.61311878 82.58329868 66.60368208 87.48864788 66.59741211 92.39402771 C66.59014432 100.63121972 66.59969987 108.86826806 66.61877441 117.10543823 C66.64053424 126.61164734 66.63349474 136.11751314 66.61146879 145.62371391 C66.59328138 153.8023577 66.590773 161.98089848 66.60122347 170.15955597 C66.60744098 175.03687764 66.6083423 179.91403826 66.59507751 184.79134941 C66.58347117 189.37897834 66.59163163 193.96616737 66.61465454 198.55374908 C66.61991649 200.23144617 66.61847122 201.90918066 66.60960388 203.58686256 C66.38646027 217.63751818 66.38646027 217.63751818 72.48125458 229.94971371 C79.18825755 236.06201277 85.9547028 236.7994578 94.57775879 236.60324097 C95.54407227 236.59373413 96.51038574 236.58422729 97.50598145 236.57443237 C103.36290793 236.49204966 109.17714273 236.18377173 115.01525879 235.72824097 C122.08394897 235.23003911 127.05990083 235.25597597 133.07775879 239.35324097 C135.95319433 242.1415421 136.31171025 243.77104237 136.39025879 247.66574097 C136.31158603 251.75672465 135.99320088 254.23283555 133.14025879 257.35324097 C120.32426429 265.53661408 104.10645798 262.54551495 89.81072998 260.64205933 C58.03569486 256.53219282 25.78840634 256.96396595 -5.97644043 260.92941284 C-37.49939522 264.84782483 -37.49939522 264.84782483 -46.53942871 258.09933472 C-50.29884173 254.20186416 -50.85974121 250.53229759 -50.85974121 245.35324097 C-49.56519619 241.31730648 -48.57829104 239.80623977 -44.98474121 237.54074097 C-39.23192677 235.35467148 -34.32268072 235.36174176 -28.23474121 235.79074097 C-8.36245644 237.8968117 -8.36245644 237.8968117 10.14025879 232.35324097 C11.13025879 232.02324097 12.12025879 231.69324097 13.14025879 231.35324097 C14.24194863 229.65554862 14.24194863 229.65554862 15.14025879 227.35324097 C15.65588379 226.23949097 16.17150879 225.12574097 16.70275879 223.97824097 C18.91842546 218.39090763 19.26622125 213.2592683 19.28070068 207.28311157 C19.28367181 206.59492033 19.28664293 205.90672909 19.28970408 205.19768357 C19.29833805 202.9041459 19.29989481 200.61066075 19.3013916 198.31710815 C19.30602352 196.66744374 19.31104868 195.0177804 19.31643677 193.36811829 C19.32952637 188.89480471 19.33599894 184.42150611 19.34044743 179.94817638 C19.34338358 177.15031675 19.34748939 174.35246116 19.3519516 171.55460358 C19.36561718 162.79164644 19.37528855 154.02869862 19.37915349 145.26573157 C19.38363273 135.16694229 19.40117834 125.06828846 19.43015409 114.96954036 C19.45180246 107.15191522 19.46185945 99.33432811 19.46319461 91.51667333 C19.46424033 86.85281613 19.47009853 82.18908643 19.48801422 77.52526093 C19.50454967 73.13557361 19.50662397 68.74610889 19.49787521 64.35640144 C19.49710777 62.75125849 19.50140863 61.14610329 19.51133347 59.54099083 C19.5724884 49.02863364 19.48329324 38.48261138 12.72229004 29.82199097 C6.4473899 23.99640467 -2.16914723 23.25095855 -10.32067871 23.22042847 C-13.05889781 23.32956581 -13.05889781 23.32956581 -16.54724121 23.84542847 C-21.19644997 24.45005356 -25.80045442 24.57349946 -30.48474121 24.60324097 C-31.30458496 24.62386597 -32.12442871 24.64449097 -32.96911621 24.66574097 C-39.24709509 24.70611382 -43.52860289 23.62137555 -48.17224121 19.10324097 C-50.24442929 15.72634188 -50.71870382 13.30228791 -50.85974121 9.35324097 C-49.92224121 6.41574097 -49.92224121 6.41574097 -48.85974121 4.35324097 C-48.19974121 4.35324097 -47.53974121 4.35324097 -46.85974121 4.35324097 C-46.85974121 3.69324097 -46.85974121 3.03324097 -46.85974121 2.35324097 C-31.95739767 -4.36742377 -15.82914378 -1.57004627 0 0 Z " fill="#000000" transform="translate(231.8597412109375,143.64675903320313)"/>
<path d="M0 0 C3.1875 -0.3984375 3.1875 -0.3984375 7 -0.375 C8.8871875 -0.38660156 8.8871875 -0.38660156 10.8125 -0.3984375 C11.864375 -0.26695312 12.91625 -0.13546875 14 0 C16.29013653 3.4352048 16.17842973 4.985331 16 9 C17.66666667 9.33333333 19.33333333 9.66666667 21 10 C21.845625 10.2475 22.69125 10.495 23.5625 10.75 C26.766434 11.07860862 27.52996948 9.91228169 30 8 C33.73202371 8.34643258 35.68957859 10.19900513 38.3125 12.75 C39.03050781 13.42546875 39.74851562 14.1009375 40.48828125 14.796875 C42 17 42 17 41.85546875 19.640625 C41 22 41 22 39 24 C39.37083833 27.4117126 40.10858176 30.68901795 41 34 C42.11375 33.938125 43.2275 33.87625 44.375 33.8125 C46.169375 33.9053125 46.169375 33.9053125 48 34 C50.32613583 37.48920374 50.24247293 38.94952546 50.1875 43.0625 C50.18105469 44.12597656 50.17460938 45.18945312 50.16796875 46.28515625 C50 49 50 49 49 51 C47.22265625 51.45703125 47.22265625 51.45703125 45.0625 51.8125 C41.62130147 52.55102033 41.62130147 52.55102033 39.4375 55.3125 C38.70589506 59.80664461 39.48607143 62.22910714 42 66 C41.72668296 69.72774078 39.78678867 71.70418533 37.25 74.3125 C36.57453125 75.03050781 35.8990625 75.74851562 35.203125 76.48828125 C33 78 33 78 30.359375 77.85546875 C28 77 28 77 26 75 C23.55036823 74.97746557 23.55036823 74.97746557 20.875 75.375 C19.96492187 75.48585938 19.05484375 75.59671875 18.1171875 75.7109375 C17.41851563 75.80632812 16.71984375 75.90171875 16 76 C15.855625 77.27875 15.71125 78.5575 15.5625 79.875 C15.29357254 82.25692894 15.07773654 83.84452691 14 86 C11.70858714 86.05384521 9.41681812 86.09272087 7.125 86.125 C5.84882812 86.14820313 4.57265625 86.17140625 3.2578125 86.1953125 C0 86 0 86 -2 84 C-2.56520003 81.34462628 -2.73788198 78.70855287 -3 76 C-3.763125 75.855625 -4.52625 75.71125 -5.3125 75.5625 C-8 75 -8 75 -11 74 C-11.78375 74.66 -12.5675 75.32 -13.375 76 C-16 78 -16 78 -18.375 78.1875 C-22.46384885 76.33778266 -25.49286545 73.73481695 -28 70 C-28.06222412 66.32877676 -27.68327195 64.15077381 -25.8125 61 C-24.49125385 57.74770179 -25.8953539 55.19119985 -27 52 C-27.63808594 51.95101562 -28.27617188 51.90203125 -28.93359375 51.8515625 C-29.75988281 51.77679688 -30.58617187 51.70203125 -31.4375 51.625 C-32.26121094 51.55539063 -33.08492187 51.48578125 -33.93359375 51.4140625 C-34.61550781 51.27742188 -35.29742188 51.14078125 -36 51 C-37.3502109 48.29957819 -37.24311007 46.07548373 -37.3125 43.0625 C-37.34988281 42.00160156 -37.38726563 40.94070312 -37.42578125 39.84765625 C-37 37 -37 37 -35.18359375 35.1328125 C-32.34602272 33.66072735 -30.1499852 33.78522828 -27 34 C-26.855625 33.2575 -26.71125 32.515 -26.5625 31.75 C-26 29 -26 29 -25.1875 27.125 C-24.86664025 23.48858949 -27.08839541 21.01222541 -29 18 C-27.8758824 16.70756532 -26.75067408 15.41607925 -25.625 14.125 C-24.68527344 13.04605469 -24.68527344 13.04605469 -23.7265625 11.9453125 C-22.52573166 10.5923402 -21.2791655 9.2791655 -20 8 C-17.18984422 8.30380062 -15.05550624 8.97363454 -12.5 10.1875 C-9.26299432 11.23952685 -8.00574961 10.42377613 -5 9 C-4.01 9 -3.02 9 -2 9 C-2.04125 8.071875 -2.0825 7.14375 -2.125 6.1875 C-2 3 -2 3 0 0 Z M-5.25 32.375 C-8.54717421 37.32076131 -9.49128991 40.82942585 -8.67578125 46.71484375 C-7.31728672 51.30859693 -4.13559181 54.68341866 -0.10546875 57.16796875 C3.84007373 58.72715344 7.83906259 58.52670094 12 58 C16.86468118 55.6577461 19.483962 52.75251622 22 48 C23.39229019 42.98775533 23.01000279 39.47975656 21.015625 34.79296875 C18.60056696 30.52946244 14.59117924 28.3117655 10 27 C3.52651589 26.41150144 -0.73179846 27.60578727 -5.25 32.375 Z " fill="#000000" transform="translate(680,165)"/>
<path d="M0 0 C0.96744141 -0.03287109 1.93488281 -0.06574219 2.93164062 -0.09960938 C5.56802389 -0.11973444 7.974914 -0.07017076 10.5625 0.4375 C14.13896387 4.25151498 14.13787033 8.42686988 14.5625 13.4375 C18.81051633 15.51359821 22.94829216 17.35688926 27.5625 18.4375 C30.01616447 17.57048075 31.16607028 16.61741571 32.90234375 14.70703125 C34.5625 13.4375 34.5625 13.4375 37.359375 12.90625 C41.8703219 13.65440705 43.81698661 15.87657482 46.875 19.125 C47.6803418 19.92067383 47.6803418 19.92067383 48.50195312 20.73242188 C50.80655507 23.10095981 52.37942061 24.98047961 53.6171875 28.0703125 C53.5441982 31.22970662 52.43901207 32.2793317 50.375 34.625 C48.59559201 36.87901746 48.59559201 36.87901746 47.5625 39.4375 C48.22713955 43.15948151 49.8176823 46.11732531 51.5625 49.4375 C51.5625 50.0975 51.5625 50.7575 51.5625 51.4375 C52.23796875 51.47488281 52.9134375 51.51226562 53.609375 51.55078125 C54.50140625 51.61652344 55.3934375 51.68226563 56.3125 51.75 C57.63507813 51.83701172 57.63507813 51.83701172 58.984375 51.92578125 C61.99863865 52.52406691 63.33073556 53.34255876 65.5625 55.4375 C66.04833984 57.56640625 66.04833984 57.56640625 66.0234375 60 C66.01957031 60.87914062 66.01570312 61.75828125 66.01171875 62.6640625 C65.98722656 63.57929688 65.96273437 64.49453125 65.9375 65.4375 C65.93556641 66.81035156 65.93556641 66.81035156 65.93359375 68.2109375 C65.84379675 75.01555488 65.84379675 75.01555488 63.5625 78.4375 C59.83393571 80.01496951 55.53050038 79.50363334 51.5625 79.4375 C51.459375 80.30375 51.35625 81.17 51.25 82.0625 C50.5625 85.4375 50.5625 85.4375 48.875 88.5625 C47.27599809 91.23753258 47.27599809 91.23753258 48.125 93.375 C48.599375 94.055625 49.07375 94.73625 49.5625 95.4375 C53.51366324 101.43634638 53.51366324 101.43634638 53.6875 105 C52.06929987 108.50610028 49.61395792 111.08213062 46.5625 113.4375 C45.9025 113.4375 45.2425 113.4375 44.5625 113.4375 C44.5625 114.0975 44.5625 114.7575 44.5625 115.4375 C41.91082065 118.16716992 40.49110048 119.41774254 36.625 119.5 C33.5625 118.4375 33.5625 118.4375 30.75 115.6875 C27.90380399 113.1346506 27.90380399 113.1346506 25.359375 113.7421875 C23.00656173 114.5282264 23.00656173 114.5282264 20.80859375 115.5078125 C18.40836363 116.50129905 16.11684965 116.99755929 13.5625 117.4375 C13.51351562 118.19675781 13.46453125 118.95601563 13.4140625 119.73828125 C13.33929687 120.73214844 13.26453125 121.72601563 13.1875 122.75 C13.11789062 123.73613281 13.04828125 124.72226562 12.9765625 125.73828125 C12.5625 128.4375 12.5625 128.4375 10.5625 131.4375 C6.74209134 132.71096955 3.10785774 132.69983806 -0.875 132.75 C-1.63876953 132.77900391 -2.40253906 132.80800781 -3.18945312 132.83789062 C-8.83153265 132.90172616 -8.83153265 132.90172616 -11.92578125 130.53125 C-14.93903608 126.35785313 -14.5347122 122.49253438 -14.4375 117.4375 C-15.85351714 116.95641725 -17.27034437 116.47771859 -18.6875 116 C-19.47640625 115.73316406 -20.2653125 115.46632813 -21.078125 115.19140625 C-21.85671875 114.94261719 -22.6353125 114.69382812 -23.4375 114.4375 C-24.11425781 114.1796875 -24.79101562 113.921875 -25.48828125 113.65625 C-27.54205737 113.22264382 -27.54205737 113.22264382 -29.40234375 114.65234375 C-30.05332031 115.22082031 -30.70429687 115.78929687 -31.375 116.375 C-33.69349752 118.39849982 -34.90192099 119.36334291 -37.9765625 119.7890625 C-42.22654166 119.18192262 -44.49027634 116.37826045 -47.4375 113.4375 C-48.0253125 112.86128906 -48.613125 112.28507812 -49.21875 111.69140625 C-51.79410747 108.96419987 -53.27706292 107.13758908 -54.125 103.4375 C-53.43171028 100.41223577 -52.73119804 99.31510198 -50.875 96.9375 C-48.64902363 94.09857994 -48.64902363 94.09857994 -48.5 90.4375 C-48.809375 89.4475 -49.11875 88.4575 -49.4375 87.4375 C-49.79299971 86.14619958 -50.14715679 84.85452882 -50.5 83.5625 C-50.9640625 82.015625 -50.9640625 82.015625 -51.4375 80.4375 C-52.18515625 80.41171875 -52.9328125 80.3859375 -53.703125 80.359375 C-55.18039062 80.27429688 -55.18039062 80.27429688 -56.6875 80.1875 C-57.66203125 80.14109375 -58.6365625 80.0946875 -59.640625 80.046875 C-63.24657609 79.26122085 -64.39062342 78.52459255 -66.4375 75.4375 C-66.98792186 72.42188282 -66.95068839 69.49433451 -66.875 66.4375 C-66.88563477 65.22707031 -66.88563477 65.22707031 -66.89648438 63.9921875 C-66.859686 60.56144658 -66.72223404 58.04255984 -65.25 54.9140625 C-62.821103 52.93534899 -61.1012458 52.97240141 -58 52.8125 C-55.05832325 52.49511222 -55.05832325 52.49511222 -52.4375 51.4375 C-49.77597843 47.87194616 -48.14564186 43.82100812 -48.6953125 39.33203125 C-49.78162873 36.55906614 -51.57651362 34.57861914 -53.4765625 32.31640625 C-54.4375 30.4375 -54.4375 30.4375 -54.4453125 28.10546875 C-53.02543697 24.34665096 -50.51357194 21.93282703 -47.6875 19.1875 C-47.1615625 18.64609375 -46.635625 18.1046875 -46.09375 17.546875 C-43.80278493 15.27859276 -41.80350759 13.5829299 -38.79296875 12.38671875 C-35.69869547 12.45342779 -34.73918236 13.41650721 -32.5 15.5 C-30.48548402 17.19240281 -30.48548402 17.19240281 -28.4375 18.4375 C-25.32779616 18.15205695 -25.32779616 18.15205695 -22.4375 16.4375 C-21.75171875 16.293125 -21.0659375 16.14875 -20.359375 16 C-17.94448227 15.44405347 -16.40097288 14.9666563 -14.4375 13.4375 C-13.45370513 10.57317689 -13.0690828 7.94581214 -12.7890625 4.93359375 C-11.86817745 -1.60469013 -5.16050589 0.03081921 0 0 Z M-37.34765625 35.72265625 C-45.57438568 46.74402837 -48.50263279 58.8308037 -47.4375 72.4375 C-44.61136232 86.43899355 -37.5523296 98.08889224 -25.6875 106.1875 C-13.40101808 113.29062236 -0.41060437 114.79818723 13.2421875 111.4375 C26.04260069 107.58231673 35.35355609 99.60774433 42.16015625 88.140625 C48.81764822 75.30779925 48.79090312 62.03913132 44.5625 48.4375 C39.86949421 36.82114904 31.11796901 27.39522977 19.5625 22.4375 C18.65886719 22.04691406 17.75523437 21.65632813 16.82421875 21.25390625 C-2.44349156 13.87858403 -24.20031405 19.99424074 -37.34765625 35.72265625 Z " fill="#000000" transform="translate(568.4375,177.5625)"/>
<path d="M0 0 C1.875 1.125 1.875 1.125 3 3 C3.50030235 6.93094707 3.5996142 9.1005787 1.375 12.4375 C-1.69817115 14.45932313 -3.38247881 14.52755517 -7 14 C-9.3125 12.875 -9.3125 12.875 -11 11 C-11.92967567 7.87894596 -12.2690005 5.88036529 -11.3125 2.75 C-8.13760231 -1.48319691 -4.87987576 -1.34975287 0 0 Z " fill="#000000" transform="translate(691,201)"/>
<path d="M0 0 C3.57063453 3.23862816 5.97712592 6.780494 8.2265625 11.01953125 C8.56558594 11.62152344 8.90460938 12.22351563 9.25390625 12.84375 C12.94007462 20.67473441 12.56102257 31.28317472 9.7890625 39.33203125 C5.29480006 48.79363639 -2.01381821 55.395493 -11.7734375 59.01953125 C-20.00946361 61.63548216 -30.08125208 60.90949574 -37.7734375 57.01953125 C-46.37380922 51.78314257 -52.71415383 44.6887698 -55.7734375 35.01953125 C-57.93766322 25.13044149 -56.16173026 15.56586315 -50.7734375 7.01953125 C-45.85372166 -0.26721768 -38.65295424 -5.26488275 -30.0859375 -7.35546875 C-18.87909733 -9.25261272 -9.07657641 -6.84345047 0 0 Z M-41.7734375 12.01953125 C-46.64335334 18.26125437 -46.70050678 25.38315645 -45.7734375 33.01953125 C-44.05730419 39.26463175 -40.12129384 43.51613965 -34.7734375 47.01953125 C-28.67437724 50.31800262 -22.43352091 51.05895506 -15.671875 49.55078125 C-9.70322201 47.6150019 -4.92589897 44.27679595 -1.44921875 39.015625 C2.14446233 31.96696632 2.33545426 24.86803795 0.1640625 17.33203125 C-4.35926123 9.59860681 -8.51644314 5.47457809 -17.125 2.61328125 C-26.99208158 0.40119217 -35.26667789 4.74899851 -41.7734375 12.01953125 Z " fill="#000000" transform="translate(590.7734375,216.98046875)"/>
<path d="M0 0 C4.59457298 1.79787638 6.77864953 4.6395713 9 9 C9.80851635 15.36706622 8.83189904 18.85718813 5 24 C0.67153004 26.98183486 -2.80077929 27.63850079 -8 27 C-11.60395671 25.61786403 -14.35972047 23.72289624 -16.9375 20.8125 C-18.81063322 15.85420618 -18.88023783 11.08477381 -16.8125 6.1875 C-11.74381795 0.07012511 -7.77479767 -1.03920563 0 0 Z " fill="#000000" transform="translate(573,230)"/>
<path d="M0 0 C2.95183101 2.95183101 3.08663988 5.95511947 4 10 C7.63254228 11.37674645 11.13154784 12.54583089 15 13 C17.54728183 11.72109611 18.94892779 10.05107221 21 8 C25.59844327 8.12303527 27.97114677 10.34156992 31.25 13.375 C32.12140625 14.16648437 32.9928125 14.95796875 33.890625 15.7734375 C36 18 36 18 37 21 C36.319375 22.11375 35.63875 23.2275 34.9375 24.375 C33.78333951 26.18244985 33.78333951 26.18244985 33 28 C33.51953703 30.63276087 33.51953703 30.63276087 35 33 C35.67795528 34.99620166 36.34733531 36.99538701 37 39 C37.92232422 38.94779297 37.92232422 38.94779297 38.86328125 38.89453125 C39.67152344 38.86746094 40.47976563 38.84039062 41.3125 38.8125 C42.51326172 38.76029297 42.51326172 38.76029297 43.73828125 38.70703125 C46 39 46 39 47.73828125 40.04296875 C49.64886625 43.00644579 49.69219403 46.07238798 49.875 49.5 C49.93429687 50.17675781 49.99359375 50.85351562 50.0546875 51.55078125 C50.2365524 54.43220324 50.35294153 56.44761849 48.76953125 58.92578125 C45.65262352 60.81794378 42.59618333 60.70523087 39 61 C36.8439135 68.06511064 36.8439135 68.06511064 38.015625 74.95703125 C39.32627358 76.32169007 40.66207373 77.66207373 42 79 C41.86902812 83.5994241 39.66021363 85.96921892 36.625 89.25 C35.83351563 90.12140625 35.04203125 90.9928125 34.2265625 91.890625 C32 94 32 94 29 95 C27.906875 94.319375 26.81375 93.63875 25.6875 92.9375 C22.79326379 91.1643995 22.38721758 90.92255648 18.875 91.625 C17.92625 92.07875 16.9775 92.5325 16 93 C14.576875 93.556875 14.576875 93.556875 13.125 94.125 C12.42375 94.41375 11.7225 94.7025 11 95 C10.92652344 96.04800781 10.92652344 96.04800781 10.8515625 97.1171875 C10.77679687 98.02726562 10.70203125 98.93734375 10.625 99.875 C10.55539062 100.77992188 10.48578125 101.68484375 10.4140625 102.6171875 C10 105 10 105 8 107 C2.57574249 108.39083526 -3.43319071 108.53666952 -9 108 C-11.3129482 105.6870518 -11.49580975 104.52095125 -12.125 101.375 C-12.29257812 100.55773437 -12.46015625 99.74046875 -12.6328125 98.8984375 C-12.81457031 97.95871094 -12.81457031 97.95871094 -13 97 C-18.97577485 94.94750904 -18.97577485 94.94750904 -25 96 C-25.66 96.680625 -26.32 97.36125 -27 98.0625 C-29 100 -29 100 -31.2578125 100.40625 C-35.14674578 99.83011174 -36.96074406 98.03095588 -39.875 95.4375 C-40.86242187 94.59058594 -41.84984375 93.74367188 -42.8671875 92.87109375 C-45 90 -45 90 -44.91796875 86.34375 C-44.02499192 83.09103441 -42.92051999 80.75552868 -41 78 C-41.66 76.88625 -42.32 75.7725 -43 74.625 C-45 71.25 -45 71.25 -45 69 C-45.68707031 69.04640625 -46.37414062 69.0928125 -47.08203125 69.140625 C-47.98308594 69.17671875 -48.88414062 69.2128125 -49.8125 69.25 C-50.70582031 69.29640625 -51.59914063 69.3428125 -52.51953125 69.390625 C-55 69 -55 69 -56.76953125 67.390625 C-58.32646301 64.365729 -58.61857723 61.88788869 -58.875 58.5 C-58.97554687 57.3759375 -59.07609375 56.251875 -59.1796875 55.09375 C-58.97705909 51.60501731 -58.51942939 50.38038803 -56 48 C-53.35978784 46.92978016 -50.81654895 46.5540752 -48 46 C-47.01 42.37 -46.02 38.74 -45 35 C-46.010625 34.113125 -47.02125 33.22625 -48.0625 32.3125 C-49.78515625 30.80078125 -49.78515625 30.80078125 -51 29 C-50.90996623 24.43078598 -48.68294187 22.02488571 -45.6875 18.75 C-44.51767578 17.44289063 -44.51767578 17.44289063 -43.32421875 16.109375 C-41.06986681 14.06340853 -40.01814353 13.11848084 -37 13 C-36.030625 13.680625 -35.06125 14.36125 -34.0625 15.0625 C-33.051875 15.701875 -32.04125 16.34125 -31 17 C-28.3192607 16.49439113 -28.3192607 16.49439113 -26 15 C-23.23353963 13.53540334 -22.21547292 13 -19 13 C-19.02320313 12.30132812 -19.04640625 11.60265625 -19.0703125 10.8828125 C-19.08835937 9.97273437 -19.10640625 9.06265625 -19.125 8.125 C-19.14820313 7.22007812 -19.17140625 6.31515625 -19.1953125 5.3828125 C-19 3 -19 3 -17 1 C-11.49100661 0.03350993 -5.58267091 -0.68335598 0 0 Z M-22 22 C-23.051875 22.5775 -24.10375 23.155 -25.1875 23.75 C-32.30071419 29.44057135 -38.29436934 36.85016823 -40 46 C-40.83466762 58.39686656 -40.09049534 67.50269461 -31.75 77.3125 C-23.77926354 85.66341961 -15.83022269 89.28102184 -4.33984375 89.953125 C6.33731322 90.10297983 14.1752247 86.20993791 22.109375 79.11328125 C29.21332379 71.62984801 32.38249163 61.96744107 32.203125 51.7734375 C31.47986194 41.89811493 27.80473871 34.19517454 21 27 C13.3586903 20.97137464 6.06525653 17.60151291 -3.75 17.625 C-4.45302246 17.62661133 -5.15604492 17.62822266 -5.88037109 17.62988281 C-11.88767402 17.7705174 -16.71336924 19.07763981 -22 22 Z " fill="#000000" transform="translate(674,245)"/>
<path d="M0 0 C6.34948944 5.47369779 10.30571916 12.4141951 11.34375 20.765625 C11.65002768 29.90290903 9.74422976 36.31714973 3.8125 43.3125 C-2.19366999 49.62240778 -8.74581725 53.09409456 -17.5625 53.3125 C-26.6023753 53.20345446 -33.68100499 50.28148311 -40.2421875 44.0390625 C-45.99858398 37.36164258 -48.39207251 29.76037018 -48 21 C-46.94183805 13.03071781 -44.02088693 6.43039715 -38 1 C-25.50233429 -6.86276982 -12.66369925 -8.68738413 0 0 Z M-33.71484375 10.796875 C-37.81872002 16.74452177 -38.56506197 22.66613438 -37.375 29.6875 C-34.8089083 35.8694482 -31.30022103 39.59516971 -25.23828125 42.30078125 C-20.3214366 43.8367589 -15.57446863 44.05584665 -10.76171875 42.08203125 C-5.43301266 38.98114579 -0.98675173 34.96025518 1 29 C1.74212833 22.15052048 1.08417387 16.65985823 -3 11 C-7.30600126 6.2464649 -11.98988717 4.4052075 -18.25 3.5625 C-24.20626837 4.25739798 -29.51475782 6.3958738 -33.71484375 10.796875 Z " fill="#000000" transform="translate(688,275)"/>
<path d="M0 0 C1.39456452 0.00667256 2.78911118 0.01863093 4.18359375 0.03515625 C5.2499707 0.04192383 5.2499707 0.04192383 6.33789062 0.04882812 C8.09899388 0.06064761 9.86005411 0.07858362 11.62109375 0.09765625 C13.62109375 6.84765625 13.62109375 6.84765625 13.62109375 9.09765625 C14.36359375 9.24203125 15.10609375 9.38640625 15.87109375 9.53515625 C18.62109375 10.09765625 18.62109375 10.09765625 20.68359375 10.84765625 C21.32296875 10.93015625 21.96234375 11.01265625 22.62109375 11.09765625 C23.26046875 10.60265625 23.89984375 10.10765625 24.55859375 9.59765625 C26.62109375 8.09765625 26.62109375 8.09765625 28.93359375 7.97265625 C33.07990477 9.70832133 35.92413562 12.53193009 38.62109375 16.09765625 C39.24609375 18.84765625 39.24609375 18.84765625 38.62109375 21.09765625 C38.09644531 21.54238281 37.57179688 21.98710937 37.03125 22.4453125 C35.35280257 24.02366199 35.35280257 24.02366199 35.765625 26.359375 C36.09626953 27.56013672 36.09626953 27.56013672 36.43359375 28.78515625 C36.64628906 29.59339844 36.85898437 30.40164063 37.078125 31.234375 C37.25730469 31.84925781 37.43648437 32.46414063 37.62109375 33.09765625 C38.92046875 33.24203125 40.21984375 33.38640625 41.55859375 33.53515625 C45.49609375 33.97265625 45.49609375 33.97265625 46.62109375 35.09765625 C46.72084407 37.60901729 46.75991558 40.0866904 46.74609375 42.59765625 C46.74996094 43.30019531 46.75382813 44.00273437 46.7578125 44.7265625 C46.74770753 49.97104247 46.74770753 49.97104247 45.62109375 51.09765625 C43.29291411 51.46526356 40.95925525 51.80007206 38.62109375 52.09765625 C37.38923027 55.0541286 36.27131448 57.9558334 35.62109375 61.09765625 C36.92454203 63.30801916 36.92454203 63.30801916 38.62109375 65.09765625 C38.30859375 68.34765625 38.30859375 68.34765625 37.62109375 71.09765625 C36.96109375 71.09765625 36.30109375 71.09765625 35.62109375 71.09765625 C35.62109375 71.75765625 35.62109375 72.41765625 35.62109375 73.09765625 C33.66182312 74.81201805 31.66229163 76.48170793 29.62109375 78.09765625 C24.79966518 76.22265625 24.79966518 76.22265625 22.74609375 74.78515625 C20.39160264 73.81899755 20.39160264 73.81899755 16.99609375 74.97265625 C13.42355995 77.22202938 13.14653389 77.42989324 12.24609375 81.22265625 C12.03984375 82.50140625 11.83359375 83.78015625 11.62109375 85.09765625 C10.62109375 86.09765625 10.62109375 86.09765625 7.4609375 86.1953125 C6.17316406 86.18371094 4.88539063 86.17210937 3.55859375 86.16015625 C1.62306641 86.14662109 1.62306641 86.14662109 -0.3515625 86.1328125 C-1.35058594 86.12121094 -2.34960938 86.10960937 -3.37890625 86.09765625 C-5.32048642 82.5814087 -5.56201693 80.12609115 -5.37890625 76.09765625 C-6.12140625 75.95328125 -6.86390625 75.80890625 -7.62890625 75.66015625 C-10.37890625 75.09765625 -10.37890625 75.09765625 -12.37890625 74.28515625 C-14.66343395 73.85249709 -14.66343395 73.85249709 -17.12890625 76.03515625 C-17.87140625 76.71578125 -18.61390625 77.39640625 -19.37890625 78.09765625 C-24.5602474 76.68456321 -28.24044139 73.35304536 -31.37890625 69.09765625 C-31.54123432 65.68876679 -30.55735969 64.36864111 -28.69140625 61.53515625 C-28.04171875 60.32859375 -28.04171875 60.32859375 -27.37890625 59.09765625 C-28.12063502 56.94748097 -28.12063502 56.94748097 -29.37890625 55.09765625 C-29.37890625 54.10765625 -29.37890625 53.11765625 -29.37890625 52.09765625 C-30.33603516 52.00677734 -30.33603516 52.00677734 -31.3125 51.9140625 C-32.13878906 51.83027344 -32.96507812 51.74648438 -33.81640625 51.66015625 C-34.64011719 51.57894531 -35.46382812 51.49773437 -36.3125 51.4140625 C-38.37890625 51.09765625 -38.37890625 51.09765625 -39.37890625 50.09765625 C-39.50447787 47.78772243 -39.55466354 45.47347089 -39.56640625 43.16015625 C-39.58058594 41.89300781 -39.59476563 40.62585938 -39.609375 39.3203125 C-39.37890625 36.09765625 -39.37890625 36.09765625 -37.37890625 34.09765625 C-35.05615448 33.69718181 -32.72151268 33.35794585 -30.37890625 33.09765625 C-29.05620048 30.48466398 -27.92831527 27.98474677 -27.37890625 25.09765625 C-29.18386137 22.38302552 -29.18386137 22.38302552 -31.37890625 20.09765625 C-31.62116578 17.02903554 -30.78579048 15.61738304 -28.9140625 13.2265625 C-24.4207304 8.33994094 -24.4207304 8.33994094 -20.69140625 7.47265625 C-18.37890625 8.09765625 -18.37890625 8.09765625 -16.62890625 9.78515625 C-14.47304783 11.37920931 -14.47304783 11.37920931 -12.12890625 10.62890625 C-9.84225409 9.85716115 -7.60633188 9.02575026 -5.37890625 8.09765625 C-5.23453125 6.96328125 -5.09015625 5.82890625 -4.94140625 4.66015625 C-4.22487202 0.12210613 -4.22487202 0.12210613 0 0 Z M-8.69921875 32.60546875 C-11.72240639 37.1508208 -12.43137002 41.76212255 -11.37890625 47.09765625 C-9.60573453 51.43626791 -7.41862761 54.34149526 -3.62890625 57.09765625 C2.03728454 58.84109957 6.58069848 59.1371029 11.93359375 56.41015625 C16.59650503 52.39788375 19.32240424 49.14428922 19.93359375 42.91015625 C19.50231872 37.64860086 18.06967192 33.36227388 14.11328125 29.703125 C6.60723975 24.76310234 -2.76712017 25.83094197 -8.69921875 32.60546875 Z " fill="#000000" transform="translate(587.37890625,307.90234375)"/>
<path d="M0 0 C17.57999437 15.20290746 24.86419616 39.43938626 26.5 61.97363281 C28.22047296 92.66843456 25.77127365 127.13670332 4.69140625 151.3984375 C-6.28659748 162.52821086 -19.15909854 168.69447852 -34.9140625 169.44140625 C-53.55036581 169.54127926 -68.13382091 165.85239163 -82.37109375 153.2734375 C-100.50576706 135.20173181 -105.61949122 107.06999803 -105.70043945 82.51098633 C-105.69660145 81.0151311 -105.69095548 79.51927953 -105.68359375 78.0234375 C-105.68177094 77.253414 -105.67994812 76.4833905 -105.67807007 75.69003296 C-105.63271731 64.30737634 -105.20688517 53.34217173 -102.37109375 42.2734375 C-102.20480469 41.60441406 -102.03851563 40.93539062 -101.8671875 40.24609375 C-97.03005572 21.2917033 -87.57647237 4.50823768 -70.828125 -6.33203125 C-48.42079411 -19.04970554 -20.08626009 -15.37184627 0 0 Z M-57.62109375 31.7734375 C-66.25614791 44.25672231 -66.71588349 61.34891324 -66.63183594 75.9909668 C-66.62112469 78.20454393 -66.63178856 80.41730684 -66.64453125 82.63085938 C-66.65952449 98.00171566 -65.90980491 115.12996805 -55.37109375 127.2734375 C-50.6101259 131.64809875 -45.58425279 133.17170831 -39.1796875 133.46484375 C-32.79264401 133.0295654 -27.38256379 130.80221732 -22.99609375 126.0859375 C-8.52462228 106.84499516 -10.58877863 75.97196688 -13.67578125 53.34765625 C-15.4553478 42.07264135 -18.67091178 32.91262167 -27.37109375 25.2734375 C-38.49798103 19.72944646 -49.88270325 22.73254563 -57.62109375 31.7734375 Z " fill="#000000" transform="translate(296.37109375,505.7265625)"/>
<path d="M0 0 C19.88168865 17.09117442 25.87817018 41.49526451 27.89990234 66.63378906 C30.08385747 96.66177567 25.43079564 128.94888184 5.93505859 152.88378906 C-4.60086219 164.33282298 -18.99105008 169.9052073 -34.28369141 170.85253906 C-50.61179624 171.25736811 -65.89796754 167.51715746 -78.62744141 156.88378906 C-98.99249948 137.15985319 -103.85686654 109.40125178 -104.71386719 82.21630859 C-104.99666331 55.95206586 -100.75231469 30.0749148 -84.75244141 8.63378906 C-84.12595703 7.79074219 -83.49947266 6.94769531 -82.85400391 6.07910156 C-62.82194784 -17.22957334 -23.67221843 -18.45496438 0 0 Z M-56.00244141 33.25878906 C-64.94360353 46.2331928 -65.10717164 62.21945946 -65.06811523 77.37768555 C-65.06495957 79.93158896 -65.08847991 82.4843251 -65.11376953 85.03808594 C-65.17194964 100.18855275 -64.39587456 117.35660234 -53.58447266 129.12597656 C-49.13260667 132.78998567 -43.87923958 134.32996075 -38.25244141 135.13378906 C-31.80933122 134.21334475 -25.87708744 132.34463791 -21.37744141 127.44628906 C-6.97330093 108.17314335 -9.16669603 76.70926245 -12.35009766 54.04541016 C-13.97652547 44.29671235 -16.52894614 33.90482469 -24.75244141 27.63378906 C-35.97437594 20.93201837 -47.94328691 23.56386558 -56.00244141 33.25878906 Z " fill="#000000" transform="translate(595.75244140625,504.3662109375)"/>
<path d="M0 0 C2.81652282 2.53817299 5.44779136 5.19743847 8 8 C8.23783203 7.09507812 8.23783203 7.09507812 8.48046875 6.171875 C9.58103999 2.40196245 10.58029576 -0.47854928 13.0625 -3.5625 C17.38720284 -5.67884394 21.27384557 -5.63845908 26 -5 C30.2368369 -3.28723615 32.08489707 -1.11747129 34 3 C34.94699629 7.32214907 34.97822238 11.04566961 34.5546875 15.4375 C33.82921352 24.25444261 34.00849301 33.01046172 34.21484375 41.84765625 C34.22902344 43.07355469 34.24320313 44.29945313 34.2578125 45.5625 C34.2798877 46.65691406 34.30196289 47.75132812 34.32470703 48.87890625 C33.85683809 53.37607658 32.36438718 56.76352411 29 59.8125 C24.83682807 62.28438333 20.71971796 62.48361436 16 62 C11.89400148 60.57869282 9.15700944 58.82911384 6.859375 55.0625 C5.71189245 52.30854189 5.17066537 49.54419378 4.5625 46.625 C2.82273388 38.52526794 2.82273388 38.52526794 -2 32 C-8.98056398 28.09844275 -16.39831348 26.70423621 -24.1953125 28.5078125 C-28.76338008 29.9743139 -31.63982364 31.6572755 -34 36 C-35.43533585 41.65628646 -35.28580263 46.55761279 -33 52 C-29.87532751 54.91838608 -26.68919539 55.86370632 -22.609375 56.98046875 C-20.71964966 57.51341553 -20.71964966 57.51341553 -18.79174805 58.05712891 C-18.13089203 58.24124329 -17.47003601 58.42535767 -16.78915405 58.61505127 C1.49164699 63.74699377 20.51130414 69.57385246 31.49609375 86.2421875 C40.10300477 102.0252503 40.02863021 121.22465777 35.25390625 138.19140625 C32.1086089 148.23494085 26.35821017 155.61578908 19 163 C18.43539062 163.5878125 17.87078125 164.175625 17.2890625 164.78125 C8.42914807 173.25219258 -3.67197703 175.40795532 -15.49609375 175.2734375 C-28.3267886 174.27215697 -38.25652164 167.93397523 -48 160 C-48.24234375 160.61488281 -48.4846875 161.22976563 -48.734375 161.86328125 C-52.221535 170.27270171 -52.221535 170.27270171 -56 172 C-60.97619931 173.19797391 -64.34307999 173.17322934 -69 171 C-72.29238115 168.34780407 -73.65694918 165.96571847 -75 162 C-75.26742554 159.5164032 -75.26742554 159.5164032 -75.29052734 156.87768555 C-75.30328705 155.88282639 -75.31604675 154.88796722 -75.32919312 153.86296082 C-75.33141876 152.79830093 -75.33364441 151.73364105 -75.3359375 150.63671875 C-75.3425943 149.53076859 -75.3492511 148.42481842 -75.35610962 147.28535461 C-75.36622368 144.94782166 -75.37092703 142.6102599 -75.37060547 140.27270508 C-75.37497167 136.71061162 -75.41128717 133.14976444 -75.44921875 129.58789062 C-75.45508865 127.31250422 -75.45905688 125.03711195 -75.4609375 122.76171875 C-75.47530853 121.70313156 -75.48967957 120.64454437 -75.50448608 119.55387878 C-75.45669257 111.75317123 -74.08874638 106.167945 -68.5625 100.5 C-62.76530018 98.05907376 -55.90191748 97.46868144 -49.9296875 99.8125 C-43.07835708 104.77024664 -42.39252311 115.3511361 -40.84375 122.984375 C-39.9785838 126.07654308 -38.70011947 128.29869906 -37 131 C-37 131.66 -37 132.32 -37 133 C-29.39190365 136.94493885 -21.09245256 139.38851244 -12.48046875 137.42578125 C-10.61318842 136.71559114 -8.79999881 135.86666609 -7 135 C-6.01 134.67 -5.02 134.34 -4 134 C-2.84077872 132.26857146 -2.84077872 132.26857146 -2 130 C-1.443125 128.63875 -1.443125 128.63875 -0.875 127.25 C0.65561589 121.56485525 0.8317829 115.46983384 -1.57739258 109.99462891 C-7.57446682 101.58616888 -23.40295941 99.18150386 -32.75390625 96.43359375 C-40.22092029 94.15177895 -46.52661499 91.37197136 -53 87 C-54.3303125 86.13375 -54.3303125 86.13375 -55.6875 85.25 C-65.15345623 76.03988043 -70.81538678 64.10782161 -71.30078125 50.94921875 C-71.32022949 49.19541598 -71.32375206 47.44137451 -71.3125 45.6875 C-71.30686035 44.76396729 -71.3012207 43.84043457 -71.29541016 42.88891602 C-71.02218559 27.48960079 -66.04042139 14.34380928 -55.2890625 3.125 C-40.42875402 -10.67023517 -16.42556658 -11.96242742 0 0 Z " fill="#000000" transform="translate(858,500)"/>
<path d="M0 0 C1.08925781 0.01546875 2.17851563 0.0309375 3.30078125 0.046875 C6.6875 0.25 6.6875 0.25 9.87475586 0.75439453 C13.98455544 1.28861321 17.94174679 1.39414736 22.078125 1.3828125 C23.25601593 1.38424759 23.25601593 1.38424759 24.45770264 1.38571167 C26.11161378 1.38638868 27.76552764 1.38456801 29.41943359 1.38037109 C31.9164038 1.375045 34.41319177 1.38031754 36.91015625 1.38671875 C44.34267257 1.38973487 51.66043444 1.28136826 59.05810547 0.49023438 C64.40384294 0.00182159 69.76048838 -0.01706371 75.125 -0.0625 C76.26259766 -0.09150391 77.40019531 -0.12050781 78.57226562 -0.15039062 C92.17137253 -0.25123968 101.96470574 3.69882339 111.62109375 13.140625 C120.65238833 23.31782577 122.63613705 36.97412416 122.0390625 50.10546875 C121.30181026 60.31339835 118.4448884 68.00517413 110.80078125 74.96875 C105.7881284 78.98675071 100.27822117 82.25 93.6875 82.25 C93.6875 82.91 93.6875 83.57 93.6875 84.25 C94.986875 84.45625 96.28625 84.6625 97.625 84.875 C104.38181827 86.39661419 110.12130094 89.96710473 114.5625 95.3125 C120.6916168 105.18249154 120.11239054 117.566227 120.30957031 128.75537109 C120.3438916 130.33439209 120.3438916 130.33439209 120.37890625 131.9453125 C120.39739624 133.3686792 120.39739624 133.3686792 120.41625977 134.82080078 C120.52820869 137.50825105 120.52820869 137.50825105 122.6875 140.25 C125.65120864 140.38573702 125.65120864 140.38573702 129 140.0625 C135.1057935 139.94119284 135.1057935 139.94119284 137.5859375 141.2578125 C142.24552512 146.42571876 142.96210003 153.66243585 142.625 160.3125 C141.94875734 165.30270442 140.34954146 169.69469966 136.6875 173.25 C130.93196374 176.51487907 126.53885164 176.46482716 120.0625 175.875 C114.05550744 175.42922227 108.38607734 175.20477535 102.375 175.875 C97.09602249 176.38936191 94.18764759 176.12243463 89.6875 173.25 C84.13721202 168.17545099 81.76211959 160.28069771 81.33520508 152.93652344 C81.17143144 148.00030938 81.16956268 143.06342756 81.1875 138.125 C81.97690438 123.4305428 81.97690438 123.4305428 76.6875 110.25 C69.9183362 105.32496125 60.88047226 104.06547389 52.6875 105.25 C50.20110547 107.14971717 49.70118524 108.20894427 48.6875 111.25 C48.45892328 114.47504461 48.5023338 117.70518214 48.5 120.9375 C48.48163086 122.24750977 48.48163086 122.24750977 48.46289062 123.58398438 C48.45041811 129.15088521 49.04913755 133.92075411 50.6875 139.25 C51.0175 139.58 51.3475 139.91 51.6875 140.25 C53.9382716 140.19107928 56.18829898 140.10266063 58.4375 140 C65.24169332 139.95851102 65.24169332 139.95851102 68.9375 142.375 C73.2925747 149.52976558 74.02206297 157.5186919 72.1171875 165.69921875 C70.88089124 169.21940969 69.60396439 171.92584184 66.6875 174.25 C62.01203644 176.32276649 58.30431513 176.36688399 53.25 175.9375 C51.99316406 175.83824219 50.73632812 175.73898437 49.44140625 175.63671875 C47.03368781 175.38868116 44.63053357 175.08720562 42.23828125 174.71875 C38.23232955 174.18991149 34.34771489 174.05939769 30.3125 174.0625 C29.53447021 174.06113037 28.75644043 174.05976074 27.95483398 174.05834961 C22.48344088 174.10306587 17.16838282 174.57977366 11.75 175.3125 C-4.9311694 177.50764187 -4.9311694 177.50764187 -10.875 173 C-16.08361261 167.12361654 -15.88388886 160.63586732 -15.70703125 153.1640625 C-15.20664677 148.19985211 -13.85435741 144.78112451 -10.3125 141.25 C-7.12425432 139.65587716 -3.68353338 140.14825265 -0.1875 140.1875 C0.56660156 140.19201172 1.32070313 140.19652344 2.09765625 140.20117188 C3.96097127 140.21296501 5.82424555 140.23090058 7.6875 140.25 C10.65475686 133.72203492 10.83711288 127.05009884 10.83276367 119.97900391 C10.83612228 119.182892 10.8394809 118.38678009 10.84294128 117.56654358 C10.85238534 114.95320037 10.85439101 112.33992167 10.85546875 109.7265625 C10.85868562 107.89724705 10.86205001 106.06793186 10.86555481 104.23861694 C10.87152952 100.4106995 10.87339639 96.58280458 10.87280273 92.75488281 C10.87270115 87.86721721 10.88635733 82.97969699 10.90357494 78.09206581 C10.91473153 74.31551458 10.91672083 70.53899811 10.91619301 66.7624321 C10.91736745 64.96124139 10.92175894 63.16004962 10.92952538 61.35887527 C10.93940053 58.83241025 10.93641794 56.30625594 10.93041992 53.77978516 C10.93884918 52.68065041 10.93884918 52.68065041 10.94744873 51.55931091 C10.91566514 46.250306 10.00754576 41.38565791 8.6875 36.25 C4.73376209 35.31358839 1.64371975 35.36055058 -2.3125 36 C-5.94810382 36.42707394 -7.89807913 36.42510667 -10.8125 34.125 C-15.86422238 28.31551927 -15.89989915 22.38066099 -15.69921875 14.93359375 C-15.07277801 8.96658754 -12.78121913 5.59392674 -8.53515625 1.5625 C-5.55992112 -0.1944051 -3.434678 -0.08072099 0 0 Z M50.6875 36.25 C47.10868934 42.45726729 47.23572919 48.3376755 47.3125 55.375 C47.30089844 56.44621094 47.28929687 57.51742187 47.27734375 58.62109375 C47.28121094 59.65621094 47.28507812 60.69132813 47.2890625 61.7578125 C47.29244629 62.69254395 47.29583008 63.62727539 47.29931641 64.59033203 C47.76579864 67.78646876 48.74585848 69.6823632 50.6875 72.25 C59.00678094 74.01237399 68.3160855 72.44999199 75.6875 68.25 C80.22371739 64.38614685 82.37343244 60.85573715 82.890625 54.91796875 C82.9987509 49.19630677 82.58004443 45.23714556 79.6875 40.25 C74.70452621 35.12861027 69.04584275 34.15024896 62.125 34 C56.16582455 34.12009742 56.16582455 34.12009742 50.6875 36.25 Z " fill="#000000" transform="translate(46.3125,495.75)"/>
<path d="M0 0 C1.50433594 -0.00386719 1.50433594 -0.00386719 3.0390625 -0.0078125 C6.375 0.125 6.375 0.125 10.0715332 0.625 C14.25225173 1.16061978 18.3557379 1.2699483 22.56640625 1.2578125 C23.31534653 1.25876923 24.0642868 1.25972595 24.83592224 1.26071167 C26.40648483 1.26138708 27.97705032 1.2595778 29.54760742 1.25537109 C31.93479745 1.25000607 34.32180003 1.25534181 36.70898438 1.26171875 C38.24479208 1.261058 39.78059966 1.25977691 41.31640625 1.2578125 C42.02076309 1.25983673 42.72511993 1.26186096 43.45082092 1.26394653 C47.85008047 1.24338357 52.02895761 0.76288886 56.375 0.125 C60.74550382 -0.07912798 65.11399103 -0.10281995 69.48852539 -0.11523438 C71.54029598 -0.12489545 73.59104347 -0.15596446 75.64257812 -0.1875 C88.83708479 -0.29297398 101.65343446 1.51237145 111.5625 10.8125 C121.39786927 21.16958827 123.64955783 32.60442649 123.52734375 46.49609375 C123.1178709 56.24994704 119.63204377 64.69759489 112.5234375 71.44921875 C108.48603348 74.59839389 103.95281195 76.86506752 99.375 79.125 C100.07625 79.47691406 100.7775 79.82882812 101.5 80.19140625 C112.85508743 86.10037159 121.36144615 93.15455665 126.1875 105.3125 C130.80960006 120.15187388 129.6628522 137.99168851 122.75 151.875 C115.79757753 163.54150404 105.14858369 170.88087025 92.125 174.5 C83.300695 175.9707175 74.86790863 176.18483426 65.9375 175.75 C64.35485352 175.68425781 64.35485352 175.68425781 62.74023438 175.6171875 C57.71737422 175.39463616 52.72291607 175.08675878 47.71875 174.59765625 C42.57431283 174.10651841 37.47886778 173.93402698 32.3125 173.9375 C31.41490967 173.93613037 30.51731934 173.93476074 29.5925293 173.93334961 C23.55773903 173.97639831 17.67126041 174.42651901 11.6875 175.1875 C-3.24335705 177.06764595 -3.24335705 177.06764595 -9.5625 173.4375 C-14.57182946 167.82097909 -15.9481157 161.80624744 -15.83984375 154.50390625 C-15.38309282 149.4464278 -14.03074935 145.61205202 -10.53125 141.91015625 C-6.64829973 139.52506448 -3.76320423 139.6681755 0.6875 139.875 C1.42806641 139.89304687 2.16863281 139.91109375 2.93164062 139.9296875 C4.7466571 139.97652663 6.56100166 140.04826211 8.375 140.125 C10.44818743 134.98537102 10.66595727 130.5550984 10.6496582 125.10961914 C10.65476913 124.22265854 10.65988007 123.33569794 10.66514587 122.42185974 C10.67900182 119.50122253 10.67808818 116.58082234 10.67578125 113.66015625 C10.67967021 111.62283745 10.68400529 109.58551946 10.68876648 107.54820251 C10.69621997 103.28218963 10.69594359 99.01625952 10.69067383 94.75024414 C10.68487865 89.29169034 10.70181573 83.83347579 10.7250185 78.37497807 C10.73977116 74.16871673 10.74062547 69.96253682 10.73750877 65.7562542 C10.73802116 63.7440772 10.74324326 61.73189555 10.75332069 59.71974373 C10.76569817 56.90286513 10.75888562 54.08664397 10.74731445 51.26977539 C10.75495819 50.44410065 10.76260193 49.6184259 10.77047729 48.76773071 C10.72272582 43.49138163 9.7552326 39.84515479 7.375 35.125 C5.96347656 35.32029297 5.96347656 35.32029297 4.5234375 35.51953125 C-6.92383314 36.78750015 -6.92383314 36.78750015 -10.3125 34.1875 C-14.99362354 27.98817424 -16.61278112 21.86487397 -15.625 14.125 C-14.31642269 8.48493037 -12.10917217 4.91929953 -7.625 1.125 C-4.97871006 -0.19814497 -2.95627024 -0.00748423 0 0 Z M49.4375 35 C46.63505836 40.60488328 47.19125925 46.56368716 47.1875 52.6875 C47.17525391 53.74130859 47.16300781 54.79511719 47.15039062 55.88085938 C47.14845703 56.89083984 47.14652344 57.90082031 47.14453125 58.94140625 C47.14042236 59.86381104 47.13631348 60.78621582 47.13208008 61.73657227 C47.21385529 64.38991701 47.21385529 64.38991701 49.375 67.125 C56.65079998 69.75279415 66.18433121 68.34891818 73.375 66.125 C77.5838295 63.89230955 80.53857289 61.24894893 83.375 57.4375 C85.22525652 51.30852528 85.53965275 45.49744078 82.6875 39.6875 C76.58490548 32.92516553 71.13374373 31.5856995 62.25 30.875 C55.23737302 31.44438638 55.23737302 31.44438638 49.4375 35 Z M48.375 100.125 C46.64225199 105.32324403 47.10555014 110.80846223 47.0625 116.25 C47.03349609 117.44882812 47.00449219 118.64765625 46.97460938 119.8828125 C46.9246466 126.89297424 47.18242556 133.23704416 51.375 139.125 C58.07376202 143.09463675 66.8519568 144.51341752 74.48828125 142.59375 C80.21439597 140.60955959 84.49942 137.97504731 87.6875 132.6875 C90.56860527 126.35851466 90.60383827 119.09509286 88.5625 112.5 C85.03592194 105.25092288 79.15552987 101.58415188 71.8125 98.75 C67.61199245 97.91331354 63.33226529 97.92347146 59.0625 97.875 C58.00276978 97.86073975 58.00276978 97.86073975 56.92163086 97.84619141 C53.19582868 97.87032978 51.55196262 98.00702492 48.375 100.125 Z " fill="#000000" transform="translate(348.625,495.875)"/>
<path d="M0 0 C1.23492188 -0.00257813 2.46984375 -0.00515625 3.7421875 -0.0078125 C6.96583759 0.04541869 10.13035137 0.30740155 13.33813477 0.625 C21.25635354 1.29663195 29.15867105 1.26965094 37.09765625 1.2578125 C38.7132519 1.25848814 40.32884744 1.25946032 41.94444275 1.26071167 C45.31038391 1.26217599 48.67629831 1.26007488 52.04223633 1.25537109 C56.32754422 1.24966997 60.61278951 1.25296335 64.89809513 1.25894356 C68.2277828 1.26257962 71.55745595 1.26139675 74.88714409 1.25881577 C76.46618088 1.25815514 78.04521905 1.2589442 79.62425423 1.26129532 C88.17895157 1.27124365 96.61161502 1.06052718 105.125 0.125 C107.7566798 -0.09277271 110.35792653 -0.22033465 113 -0.3125 C114.23492188 -0.37308594 115.46984375 -0.43367188 116.7421875 -0.49609375 C120.38497846 0.17273277 121.82769619 1.07650453 124.09085083 3.98332214 C126.40755247 8.78111026 125.78675753 14.34329719 125.71875 19.5546875 C125.71879028 20.85898712 125.71883057 22.16328674 125.71887207 23.5071106 C125.71722291 26.26272406 125.69860705 29.01752002 125.66699219 31.77294922 C125.62739289 35.28550888 125.62294024 38.79699581 125.63045502 42.30973625 C125.63428405 45.68318115 125.61341249 49.05629531 125.59375 52.4296875 C125.59354858 53.68200165 125.59334717 54.9343158 125.59313965 56.22457886 C125.49330971 63.63581448 125.1809013 70.04788611 120.58203125 76.18359375 C116.34094445 79.7396594 112.75976897 81.60195879 107.125 81.125 C101.93460482 79.56788145 98.96890829 77.75951721 96.125 73.125 C92.93583165 65.14648409 94.09657764 56.51924962 94.37890625 48.08789062 C94.41177734 46.25967773 94.41177734 46.25967773 94.4453125 44.39453125 C94.47898926 43.28698486 94.51266602 42.17943848 94.54736328 41.03833008 C94.02608948 37.44274609 92.95805469 36.31981754 90.125 34.125 C87.06163511 33.39151826 84.21502129 33.55130119 81.125 34.125 C78.09284325 36.32331364 77.30845602 37.57463194 76.125 41.125 C76.01795928 44.06014154 75.96773056 46.97188409 75.96386719 49.9074707 C75.95890228 50.80535309 75.95393738 51.70323547 75.94882202 52.62832642 C75.934202 55.60248579 75.92739852 58.57659182 75.921875 61.55078125 C75.91612326 63.61720278 75.91036553 65.68362428 75.90460205 67.75004578 C75.89409241 72.08523813 75.88824955 76.42041193 75.88476562 80.75561523 C75.87928211 86.30737273 75.85525686 91.85888482 75.82679367 97.41056538 C75.80815857 101.68025933 75.80296121 105.94989429 75.80142975 110.21962547 C75.79840449 112.26612883 75.79038023 114.31263118 75.77724457 116.35909462 C75.76016664 119.22436752 75.7620687 122.08904238 75.76855469 124.9543457 C75.7593399 125.7976796 75.75012512 126.64101349 75.7406311 127.50990295 C75.77578292 132.47374589 76.4736349 135.77071514 79.125 140.125 C79.76526123 140.10405273 80.40552246 140.08310547 81.06518555 140.06152344 C83.98079575 139.97810716 86.89615452 139.92626031 89.8125 139.875 C90.81990234 139.84148437 91.82730469 139.80796875 92.86523438 139.7734375 C100.3661215 139.67441589 100.3661215 139.67441589 104.25 141.98046875 C108.46003111 146.79569183 108.51306584 152.17038878 108.37109375 158.30859375 C107.85234156 164.2454244 106.45562731 168.52824723 102.625 173.125 C95.12322075 178.36174929 84.78068679 175.85175708 76.29418945 174.8972168 C61.29429387 173.29456374 46.26090481 173.63371836 31.30102539 175.50097656 C24.22022093 176.33443357 17.23632041 176.59580601 10.6875 173.5 C6.30021986 169.43374036 5.30079463 166.36149836 4.84375 160.546875 C4.56588133 148.73745637 4.56588133 148.73745637 8.125 143.125 C11.19242945 140.28273382 13.184775 139.75976352 17.328125 139.83203125 C18.79765625 139.8465332 18.79765625 139.8465332 20.296875 139.86132812 C21.31265625 139.88646484 22.3284375 139.91160156 23.375 139.9375 C24.40625 139.95103516 25.4375 139.96457031 26.5 139.97851562 C29.04219792 140.01382393 31.58333223 140.06313964 34.125 140.125 C36.8964254 134.60197908 37.55944089 130.31464793 37.51318359 124.1796875 C37.51844055 123.31208801 37.52369751 122.44448853 37.52911377 121.55059814 C37.54225137 118.7002123 37.53359786 115.85039093 37.5234375 113 C37.52546003 111.00895074 37.52837296 109.0179022 37.53213501 107.02685547 C37.53654991 102.86093062 37.53015412 98.69519919 37.51611328 94.52929688 C37.49902199 89.19966229 37.50886763 83.870481 37.52683067 78.54086304 C37.537691 74.43152474 37.53421183 70.32229324 37.5264473 66.21295166 C37.52445151 64.24822943 37.52688265 62.28349738 37.53388596 60.31878662 C37.54153745 57.56903541 37.52984456 54.82000991 37.51318359 52.0703125 C37.51925629 51.26491028 37.52532898 50.45950806 37.53158569 49.62969971 C37.46464815 43.641499 36.53148613 38.53148613 32.125 34.125 C30.05483112 33.76829083 30.05483112 33.76829083 27.75 33.8125 C26.59371094 33.78736328 26.59371094 33.78736328 25.4140625 33.76171875 C22.46374146 34.22994376 21.24771002 35.02053439 19.125 37.125 C18.6207685 39.97713386 18.6207685 39.97713386 18.83984375 43.2265625 C18.86626953 44.43957031 18.89269531 45.65257812 18.91992188 46.90234375 C18.96697266 48.17207031 19.01402344 49.44179688 19.0625 50.75 C19.71433232 69.56557786 19.71433232 69.56557786 13.8125 77.0625 C9.7305483 80.1951606 6.77439641 81.18390701 1.625 81 C-2.51934886 79.96391278 -4.70098972 79.01687604 -7.875 76.125 C-12.31197651 68.49045362 -12.44887736 60.82043857 -12.37109375 52.19921875 C-12.37254898 50.8934639 -12.37400421 49.58770905 -12.37550354 48.24238586 C-12.3768779 45.49821425 -12.36448539 42.7545715 -12.34155273 40.01049805 C-12.31302891 36.50227174 -12.31595583 32.99491289 -12.32864285 29.4866209 C-12.33727909 26.11989637 -12.32215884 22.75342861 -12.30859375 19.38671875 C-12.31152939 18.13146896 -12.31446503 16.87621918 -12.31748962 15.58293152 C-12.30480545 14.41434097 -12.29212128 13.24575043 -12.27905273 12.04174805 C-12.27364975 11.0171196 -12.26824677 9.99249115 -12.26268005 8.93681335 C-11.81247188 5.67148841 -10.80748158 3.77376848 -8.875 1.125 C-5.92619642 -0.34940179 -3.28536645 -0.00671854 0 0 Z " fill="#000000" transform="translate(645.875,495.875)"/>
</svg>
